<svg width="10" height="13" viewBox="0 0 10 13" fill="none" xmlns="http://www.w3.org/2000/svg">
<path fill-rule="evenodd" clip-rule="evenodd" d="M1.51348 0C1.11208 0 0.72712 0.159455 0.443287 0.443287C0.159455 0.72712 0 1.11208 0 1.51348V10.5943C0 10.9957 0.159455 11.3807 0.443287 11.6645C0.72712 11.9484 1.11208 12.1078 1.51348 12.1078H7.56739C7.96879 12.1078 8.35375 11.9484 8.63758 11.6645C8.92141 11.3807 9.08087 10.9957 9.08087 10.5943V4.09698C9.08078 3.69562 8.92127 3.31072 8.63742 3.02696L6.05391 0.443449C5.77015 0.159597 5.38525 8.57195e-05 4.98388 0H1.51348ZM5.29717 4.54043C5.29717 4.33973 5.21744 4.14725 5.07553 4.00534C4.93361 3.86342 4.74113 3.7837 4.54043 3.7837C4.33973 3.7837 4.14725 3.86342 4.00534 4.00534C3.86342 4.14725 3.78369 4.33973 3.78369 4.54043V7.2541L2.80523 6.27564C2.73542 6.20336 2.65192 6.14571 2.5596 6.10605C2.46727 6.06639 2.36797 6.04551 2.26749 6.04464C2.16701 6.04377 2.06737 6.06292 1.97437 6.10097C1.88137 6.13901 1.79687 6.1952 1.72582 6.26626C1.65477 6.33731 1.59858 6.4218 1.56053 6.5148C1.52248 6.6078 1.50333 6.70745 1.50421 6.80793C1.50508 6.90841 1.52596 7.00771 1.56562 7.10003C1.60528 7.19236 1.66293 7.27586 1.7352 7.34567L4.00542 9.61588C4.14733 9.75775 4.33977 9.83745 4.54043 9.83745C4.74109 9.83745 4.93354 9.75775 5.07545 9.61588L7.34566 7.34567C7.48351 7.20294 7.55979 7.01179 7.55806 6.81337C7.55634 6.61496 7.47675 6.42516 7.33645 6.28485C7.19614 6.14455 7.00634 6.06496 6.80793 6.06324C6.60951 6.06152 6.41836 6.13779 6.27564 6.27564L5.29717 7.2541V4.54043Z" fill="#111928"/>
</svg>
