<svg width="176" height="56" viewBox="0 0 176 56" fill="none" xmlns="http://www.w3.org/2000/svg">
<path d="M53.5734 4.18999C53.6697 2.06802 52.0275 0.2698 49.9056 0.173548C47.7836 0.0772962 45.9854 1.71946 45.8891 3.84143C45.7929 5.9634 47.435 7.76162 49.557 7.85787C51.679 7.95413 53.4772 6.31196 53.5734 4.18999Z" fill="#B80074"/>
<path d="M14.1975 12.9271C11.1698 12.9271 8.3603 13.8681 6.08269 15.4775C5.91903 15.5729 5.75537 15.4775 5.75537 15.3002V2.80746C5.75537 2.71199 5.67354 2.63016 5.59171 2.58925C3.5596 1.8255 1.77298 1.0072 0.32732 0.120712C0.177298 0.0388821 0 0.120712 0 0.29801V27.1246C0 32.3617 2.31852 35.9077 5.26439 38.158C8.19664 40.3947 11.7426 41.3221 14.1975 41.3221C32.9366 41.3221 32.9366 12.9271 14.1975 12.9271ZM20.7575 27.4792C20.7575 31.5025 17.989 34.8712 14.2521 35.7986C14.2111 35.8122 14.1702 35.8122 14.1429 35.7986C10.406 34.8712 7.63746 31.5025 7.63746 27.4792V23.7423C7.63746 23.6332 7.70566 23.5377 7.81476 23.5104C8.14208 23.4286 8.45576 23.3468 8.75581 23.2377C11.3335 22.3375 13.3792 19.6644 14.0066 18.7098C14.102 18.5734 14.293 18.5734 14.3884 18.6961C15.084 19.6644 17.4434 22.4603 19.6256 23.224C19.9392 23.3331 20.2529 23.4286 20.5666 23.4968C20.6757 23.5241 20.7439 23.6196 20.7439 23.7287V27.4792H20.7575Z" fill="#B80074"/>
<path d="M139.806 17.0723C136.806 14.0855 132.701 12.5989 128.391 12.9808C121.777 13.6082 116.389 18.8862 115.667 25.5144C114.725 34.052 121.422 41.3213 129.769 41.3213C134.051 41.3213 138.033 39.4392 140.747 36.1387C140.829 36.0432 140.788 35.8796 140.693 35.825L135.974 33.111C135.892 33.0564 135.797 33.0701 135.715 33.1246C134.146 34.693 132.019 35.5795 129.769 35.5795C126.25 35.5795 123.222 33.4247 121.954 30.356C121.899 30.2197 122.008 30.056 122.172 30.056H143.734C143.857 30.056 143.952 29.9605 143.952 29.8378L143.966 27.5602C143.993 23.6733 142.575 19.8409 139.806 17.0723ZM137.461 24.3415H122.09C121.954 24.3415 121.831 24.1779 121.899 24.0415C123.331 20.3864 127.259 17.9588 131.582 18.8589C132.728 19.0908 133.806 19.5681 134.719 20.25C136.069 21.2456 137.079 22.5686 137.665 24.0415C137.733 24.1779 137.611 24.3415 137.461 24.3415Z" fill="#B80074"/>
<path d="M82.8819 0.120596C81.4226 1.00709 79.6633 1.82539 77.6039 2.58913C77.522 2.63005 77.4675 2.71188 77.4675 2.78007V15.2864C77.4675 15.4637 77.2766 15.5592 77.1402 15.4637C76.1582 14.7818 73.1578 12.9133 69.0117 12.9133C61.1151 12.9133 54.6915 19.4188 54.8142 27.3291C54.937 34.9529 61.1151 41.1583 68.7253 41.3084C71.9712 41.3629 74.9717 40.34 77.3857 38.5807C80.918 36.003 83.2229 31.8297 83.2229 27.1109V0.297895C83.1956 0.147873 83.0183 0.0251281 82.8819 0.120596ZM77.3584 28.461C76.7037 32.4844 73.2123 35.5939 68.9981 35.5939C64.3474 35.5939 60.5287 31.8024 60.5287 27.1245C60.5287 22.4465 64.3338 18.6551 68.9981 18.6551C73.226 18.6551 76.7174 21.751 77.3584 25.7879C77.4129 26.2244 77.4539 26.6744 77.4539 27.1245C77.4539 27.5746 77.4129 28.0383 77.3584 28.461Z" fill="#B80074"/>
<path d="M107.784 15.7365C105.016 13.6771 101.456 12.5997 97.6645 13.0225C91.1453 13.7726 85.9219 19.0097 85.2127 25.5152C84.2443 34.0528 90.9408 41.322 99.3147 41.322C102.342 41.322 105.125 40.381 107.429 38.7717C107.593 38.6762 107.784 38.758 107.784 38.9353V41.0766C107.784 45.6318 104.293 49.5596 99.7511 49.7778C94.9641 50.0097 90.968 46.2455 90.8589 41.5539C90.8589 41.4311 90.7635 41.3357 90.6407 41.3357H85.3354C85.2127 41.3357 85.1172 41.4311 85.1172 41.5539C85.2399 49.4641 91.8545 55.8332 99.8602 55.5195C107.539 55.2468 113.512 48.6867 113.512 40.9811V27.1245C113.512 22.4739 111.262 18.3278 107.784 15.7365ZM99.8602 35.5803C94.7595 35.894 90.5316 31.6934 90.8589 26.579C91.1317 22.3511 94.5276 18.9552 98.7555 18.6824C103.843 18.3551 108.084 22.5693 107.757 27.6837C107.484 31.898 104.088 35.2939 99.8602 35.5803Z" fill="#B80074"/>
<path d="M36.1949 15.3135V13.6769C36.1949 13.5542 36.0994 13.4587 35.9766 13.4587H30.6713C30.5486 13.4587 30.4531 13.5542 30.4531 13.6769V40.5717C30.4531 40.6944 30.5486 40.7899 30.6713 40.7899H35.9766C36.0994 40.7899 36.1949 40.6944 36.1949 40.5717V27.1243C36.1949 22.5282 39.8772 18.7776 44.446 18.6685C44.5688 18.6685 44.6506 18.5731 44.6506 18.4503V13.1586C44.6506 13.0359 44.5552 12.9404 44.4324 12.9404C41.5002 12.9813 38.7725 13.9224 36.5358 15.5044C36.3858 15.5863 36.1949 15.4908 36.1949 15.3135Z" fill="#B80074"/>
<path d="M52.3868 40.7899H47.0815C46.9588 40.7899 46.8633 40.6944 46.8633 40.5716V13.145C46.8633 13.0222 46.9588 12.9268 47.0815 12.9268H52.3868C52.5095 12.9268 52.605 13.0222 52.605 13.145V40.5716C52.605 40.6944 52.4959 40.7899 52.3868 40.7899Z" fill="#B80074"/>
<path d="M126.536 55.8926V45.151H133.38V46.3786H127.871V49.8159H132.459V51.0435H127.871V54.665H133.579V55.8926H126.536ZM134.724 53.3146H136.013C136.059 54.2353 136.873 54.9105 138.177 54.9105C139.282 54.9105 140.064 54.4348 140.064 53.7136C140.064 52.7315 139.205 52.6548 138.039 52.5167C136.29 52.3018 134.893 51.9489 134.893 50.3223C134.893 48.8952 136.198 47.9592 137.962 47.9745C139.742 47.9899 141.031 48.8185 141.154 50.4451H139.865C139.773 49.6471 139.036 49.0487 137.962 49.0487C136.873 49.0487 136.136 49.509 136.136 50.2302C136.136 51.0896 136.965 51.197 138.1 51.3351C139.88 51.5499 141.307 51.8875 141.307 53.6215C141.307 55.0793 139.911 55.9846 138.177 55.9846C136.151 55.9846 134.755 55.0333 134.724 53.3146ZM146.372 55.9846C144.085 55.9846 142.581 54.4348 142.581 51.9949C142.581 49.6011 144.131 47.9745 146.402 47.9745C148.32 47.9745 149.533 49.0487 149.855 50.7673H148.535C148.305 49.7239 147.538 49.0947 146.387 49.0947C144.883 49.0947 143.87 50.2916 143.87 51.9949C143.87 53.6982 144.883 54.8645 146.387 54.8645C147.507 54.8645 148.274 54.22 148.52 53.2225H149.855C149.548 54.9105 148.274 55.9846 146.372 55.9846ZM155.009 48.0666H155.362V49.2942H154.733C153.091 49.2942 152.646 50.6599 152.646 51.9029V55.8926H151.388V48.0666H152.477L152.646 49.2482C153.015 48.6497 153.613 48.0666 155.009 48.0666ZM159.763 55.9846C157.477 55.9846 155.881 54.3581 155.881 51.9796C155.881 49.6011 157.477 47.9745 159.763 47.9745C162.049 47.9745 163.645 49.6011 163.645 51.9796C163.645 54.3581 162.049 55.9846 159.763 55.9846ZM159.763 54.8645C161.313 54.8645 162.356 53.6522 162.356 51.9796C162.356 50.307 161.313 49.0947 159.763 49.0947C158.213 49.0947 157.17 50.307 157.17 51.9796C157.17 53.6522 158.213 54.8645 159.763 54.8645ZM166.782 55.8926L164.25 48.0666H165.57L167.519 54.4348L169.575 48.0666H170.741L172.69 54.4348L174.731 48.0666H176.005L173.396 55.8926H172.015L170.128 50.0768L168.163 55.8926H166.782Z" fill="#B80074"/>
<path d="M170.295 17.0752C167.294 14.0884 163.189 12.6019 158.879 12.9837C152.265 13.6111 146.878 18.8891 146.155 25.5174C145.214 34.055 151.91 41.3242 160.257 41.3242C164.539 41.3242 168.522 39.4421 171.236 36.1416C171.318 36.0462 171.277 35.8825 171.181 35.8279L166.462 33.1139C166.38 33.0594 166.285 33.073 166.203 33.1276C164.635 34.696 162.507 35.5825 160.257 35.5825C156.738 35.5825 153.71 33.4276 152.442 30.359C152.388 30.2226 152.497 30.0589 152.66 30.0589H174.223C174.345 30.0589 174.441 29.9635 174.441 29.8407L174.454 27.5631C174.482 23.6762 173.063 19.8438 170.295 17.0752ZM167.949 24.3445H152.578C152.442 24.3445 152.319 24.1808 152.388 24.0444C153.82 20.3894 157.747 17.9617 162.071 18.8619C163.216 19.0937 164.294 19.5711 165.208 20.253C166.558 21.2486 167.567 22.5715 168.153 24.0444C168.222 24.1808 168.099 24.3445 167.949 24.3445Z" fill="#B80074"/>
</svg>
